<svg id="Capa_1" enable-background="new 0 0 512 512" height="512" viewBox="0 0 512 512" width="512" xmlns="http://www.w3.org/2000/svg"><g><g><g><path d="m469.347 282.371h-250.819c-18.034 0-32.653 14.619-32.653 32.653v109.338c0 18.034 14.619 32.653 32.653 32.653h37.472v44.994l50.307-44.994h163.04c18.034 0 32.653-14.619 32.653-32.653v-109.338c0-18.034-14.619-32.653-32.653-32.653z" fill="#fff"/></g><g><path d="m421 215.509c0 23.4-3.91 45.9-11.13 66.86h-191.34c-18.04 0-32.65 14.62-32.65 32.65v103.87c-99.46-14.36-175.88-99.95-175.88-203.38 0-56.74 23-108.12 60.19-145.31s88.57-60.19 145.31-60.19 108.12 23 145.31 60.19 60.19 88.57 60.19 145.31z" fill="#ff7e96"/></g><g><path d="m376.84 215.509c0 23.83-5.2 46.48-14.52 66.86h-143.79c-18.04 0-32.65 14.62-32.65 32.65v59.1c-74.87-13.95-131.72-79.77-131.72-158.61 0-88.96 72.38-161.34 161.34-161.34s161.34 72.38 161.34 161.34z" fill="#ffce69"/></g></g><path d="m469.347 272.371h-45.937c5.038-18.438 7.59-37.505 7.59-56.862 0-57.562-22.416-111.678-63.118-152.381-29.312-29.311-66.12-49.434-106.444-58.193-5.403-1.175-10.723 2.252-11.895 7.649s2.252 10.722 7.649 11.895c36.569 7.943 69.955 26.198 96.548 52.791 36.924 36.926 57.26 86.02 57.26 138.239 0 19.421-2.823 38.515-8.399 56.86h-25.469c6.439-18.203 9.708-37.264 9.708-56.86 0-94.477-76.862-171.34-171.34-171.34-94.477 0-171.34 76.863-171.34 171.34 0 79.698 54.908 148.51 131.715 166.706v24.773c-41.591-8.577-79.491-30.656-107.7-62.966-31.066-35.58-48.175-81.221-48.175-128.513 0-52.219 20.335-101.313 57.261-138.239 26.651-26.65 60.112-44.921 96.766-52.839 5.398-1.166 8.829-6.487 7.663-11.886s-6.489-8.831-11.886-7.663c-40.419 8.73-77.311 28.871-106.686 58.246-40.702 40.703-63.118 94.82-63.118 152.381 0 52.13 18.861 102.442 53.109 141.668 32.025 36.679 75.399 61.389 122.884 70.205 1.556 22.114 20.032 39.633 42.534 39.633h27.473v34.994c0 8.444 10.34 13.114 16.666 7.454l47.46-42.447h159.221c23.52 0 42.653-19.134 42.653-42.653v-109.339c0-23.519-19.134-42.653-42.653-42.653zm-404.856-46.862h8.489c5.523 0 10-4.477 10-10s-4.477-10-10-10h-8.481c4.95-75.497 65.504-136.051 141.001-141.001v8.481c0 5.523 4.477 10 10 10s10-4.477 10-10v-8.481c75.497 4.95 136.051 65.504 141.001 141.001h-8.481c-5.522 0-10 4.477-10 10s4.478 10 10 10h8.488c-1.05 16.175-4.647 31.877-10.756 46.86h-137.222c-23.142 0-42.655 19.519-42.655 42.655v46.566c-62.219-16.817-107.147-71.574-111.384-136.081zm131.389 89.51c0-12.328 10.315-22.648 22.648-22.648h250.818c12.491 0 22.653 10.162 22.653 22.653v109.338c0 12.491-10.162 22.653-22.653 22.653h-163.04c-2.46 0-4.833.907-6.667 2.546l-33.639 30.088v-22.634c0-5.523-4.478-10-10-10h-37.472c-12.491 0-22.653-10.162-22.653-22.653z"/><path d="m186 215.509c0 16.266 13.234 29.5 29.5 29.5s29.5-13.234 29.5-29.5c0-12.903-8.331-23.89-19.893-27.885l-2.922-60.512c-.267-5.517-4.964-9.774-10.471-9.506-5.516.266-9.772 4.954-9.506 10.471l2.298 47.593-38.734-67.506c-2.75-4.792-8.861-6.445-13.651-3.697-4.79 2.749-6.445 8.86-3.697 13.65l44.803 78.083c-4.496 5.178-7.227 11.928-7.227 19.309zm29.5 9.5c-5.238 0-9.5-4.262-9.5-9.5s4.262-9.5 9.5-9.5 9.5 4.262 9.5 9.5-4.262 9.5-9.5 9.5z"/><path d="m452.417 323.007h-14.537c-5.522 0-10 4.477-10 10s4.478 10 10 10h4.537v58.012c0 5.523 4.478 10 10 10s10-4.477 10-10v-68.012c0-5.523-4.478-10-10-10z"/><path d="m370.521 391.528c-5.192.065-10.642.114-15.602.138 3.478-4.716 7.908-10.845 13.47-18.792 4.516-6.451 7.469-12.587 8.78-18.239 3.832-16.481-10.432-32.293-26.809-32.293-13.064 0-24.372 9.295-26.889 22.102-1.064 5.419 2.465 10.675 7.885 11.74 5.413 1.067 10.676-2.465 11.74-7.885.678-3.452 3.733-5.958 7.264-5.958 4.149 0 8.143 3.923 7.22 8.202-.581 2.211-2.028 5.793-5.576 10.863-10.747 15.355-17.157 23.748-20.601 28.257-4.314 5.65-6.919 9.06-5.258 14.46.978 3.179 3.475 5.715 6.681 6.784 1.324.441 28.209.741 37.946.619 5.522-.069 9.942-4.603 9.873-10.125-.069-5.523-4.579-9.957-10.124-9.873z"/><path d="m250.935 322.206c-13.065 0-24.374 9.295-26.889 22.103-1.064 5.419 2.466 10.675 7.885 11.74 5.418 1.063 10.675-2.466 11.74-7.885.678-3.452 3.733-5.957 7.264-5.957 4.082 0 7.403 3.321 7.403 7.403s-3.321 7.403-7.403 7.403c-5.523 0-10 4.477-10 10s4.477 10 10 10c4.082 0 7.403 3.321 7.403 7.403s-3.321 7.403-7.403 7.403c-3.674 0-6.826-2.733-7.331-6.354-.048-.346-.072-.699-.072-1.049 0-5.523-4.477-10-10-10s-10 4.477-10 10c0 1.269.089 2.55.264 3.81 1.877 13.45 13.544 23.593 27.139 23.593 15.11 0 27.403-12.293 27.403-27.403 0-6.602-2.348-12.667-6.251-17.403 3.904-4.736 6.251-10.8 6.251-17.403 0-15.111-12.293-27.404-27.403-27.404z"/><path d="m305.654 392.724c-5.022-2.295-10.956-.087-13.253 4.936l-7.861 17.191c-2.297 5.022-.088 10.956 4.935 13.253 1.349.616 2.762.908 4.153.908 3.793 0 7.42-2.169 9.1-5.844l7.861-17.191c2.297-5.023.088-10.956-4.935-13.253z"/><path d="m415.051 392.724c-5.022-2.295-10.956-.087-13.253 4.936l-7.861 17.191c-2.297 5.022-.088 10.956 4.935 13.253 4.955 2.264 10.989.018 13.253-4.936l7.861-17.191c2.296-5.023.087-10.956-4.935-13.253z"/><path d="m223.81 4.459c-2.991-4.563-9.352-5.749-13.86-2.76-4.548 3.016-5.763 9.332-2.76 13.86 3.013 4.542 9.337 5.772 13.86 2.76 4.493-2.992 5.834-9.369 2.76-13.86z"/></g></svg>