<svg id="Layer_1" height="512" viewBox="0 0 256 256" width="512" xmlns="http://www.w3.org/2000/svg"><path d="m160.194 51.317c-4.783-1.549-9.519-2.718-10.543-2.89-1.796-.403-5.19-1.036-7.275-1.301-2.459 5.318-6.783 11.599-10.287 16.271-2.039 2.725-6.137 2.725-8.176 0-3.504-4.672-7.828-10.953-10.287-16.271-2.213.297-4.683.727-7.275 1.291-1.025.256-5.31 1.155-10.543 2.9-40.38 13.463-69.5 51.569-69.5 96.489-.002 56.16 45.532 101.694 101.692 101.694s101.694-45.534 101.694-101.694c0-44.919-29.12-83.025-69.5-96.489z" fill="#fc5d3d"/><circle cx="128" cy="148.313" fill="#efefef" r="72.139"/><circle cx="128" cy="148.313" fill="#efefef" r="72.139"/><path d="m114.106 30.732c-2.264-.891-4.601-1.455-7.326-1.578h-.031c-.686-.051.738-.031-33.987-.031-3.402 0-5.922 3.268-4.928 6.527 2.787 9.068 11.24 15.667 21.22 15.667h6.752c5.184-1.728 9.519-2.643 10.543-2.9 2.592-.564 5.062-.994 7.275-1.291-1.67-3.586-4.057-9.365.482-16.394z" fill="#13bf6d"/><path d="m113.625 47.126c-2.213.297-4.683.727-7.275 1.291-1.65-3.904-3.801-11.035.4-19.263h.031c2.725.123 5.062.687 7.326 1.578-4.54 7.029-2.153 12.808-.482 16.394z" fill="#139d6e"/><path d="m183.576 29.124c-34.878 0-33.444-.031-34.325.041 0 0-.01 0-.021 0-2.592.143-4.99.727-7.265 1.68 4.078 6.424 2.531 11.722.41 16.281 2.153.274 5.566.918 7.275 1.301 1.025.171 5.76 1.34 10.543 2.89h7.09c9.98 0 18.433-6.599 21.22-15.667.995-3.258-1.526-6.526-4.927-6.526z" fill="#13bf6d"/><path d="m149.65 48.428c-1.709-.384-5.122-1.027-7.275-1.301 2.121-4.56 3.668-9.857-.41-16.281 2.275-.953 4.672-1.537 7.265-1.68h.021c4.19 8.226 2.049 15.358.399 19.262z" fill="#139d6e"/><path d="m142.376 47.126c-2.459 5.318-6.783 11.599-10.287 16.271-2.039 2.725-6.137 2.725-8.176 0-3.504-4.672-7.828-10.953-10.287-16.271-1.67-3.586-4.058-9.365.482-16.394 2.941-4.56 8.064-7.582 13.894-7.582 5.871 0 11.035 3.074 13.966 7.695 4.076 6.425 2.528 11.722.408 16.281z" fill="#13bf6d"/><path d="m200.134 148.308c0 13.136-3.515 25.462-9.662 36.077l-62.472-36.067v-72.143c39.837 0 72.134 32.296 72.134 72.133z" fill="#f0c020"/><path d="m190.471 184.385c-6.322 10.943-15.451 20.072-26.394 26.405l-36.067-62.461z" fill="#72c2e9"/><circle cx="128" cy="148.313" fill="#878787" r="10.759"/><path d="m149.65 48.428c-2.548 6.23-7.778 13.875-11.824 19.273-4.891 6.543-14.756 6.561-19.652-.01-4.055-5.399-9.269-13.026-11.824-19.273 2.592-.564 5.062-.994 7.275-1.291 2.459 5.318 6.783 11.599 10.287 16.271 2.039 2.725 6.137 2.725 8.176 0 3.504-4.672 7.828-10.953 10.287-16.271 2.086.265 5.479.897 7.275 1.301z" fill="#b34f33"/><g><g><path d="m44.855 230.8c-4.094-1.353-8.322-2.535-10.696-12.76-2.186 9.418-5.689 11.106-10.696 12.76 8.166 2.698 9.398 7.166 10.696 12.76 2.237-9.643 5.939-11.188 10.696-12.76z" fill="#f0c020"/></g><g><path d="m232.537 65.825c-4.094-1.353-8.322-2.535-10.696-12.76-2.186 9.418-5.689 11.106-10.696 12.76 8.166 2.698 9.398 7.166 10.696 12.76 2.238-9.643 5.939-11.188 10.696-12.76z" fill="#f0c020"/></g></g><path d="m128 239.256c-16.081 0-31.885-4.251-45.704-12.293-1.193-.694-1.598-2.225-.903-3.418.695-1.194 2.224-1.599 3.418-.903 13.057 7.599 27.992 11.615 43.189 11.615 47.502 0 85.944-38.437 85.944-85.943 0-22.956-8.939-44.539-25.172-60.771-.977-.976-.977-2.559 0-3.535.976-.977 2.56-.977 3.535 0 17.177 17.177 26.637 40.015 26.637 64.306-.001 50.263-40.675 90.942-90.944 90.942zm-54.276-17.957c-3.524-2.627-6.899-5.547-10.031-8.68-.977-.976-.977-2.559 0-3.535.976-.977 2.56-.977 3.535 0 2.962 2.962 6.153 5.723 9.484 8.206 1.107.825 1.335 2.392.51 3.499s-2.391 1.335-3.498.51z" fill="#ffcbc3"/><path d="m128 199.435c-1.381 0-2.5 1.119-2.5 2.5v4.782c0 1.381 1.119 2.5 2.5 2.5s2.5-1.119 2.5-2.5v-4.782c0-1.381-1.119-2.5-2.5-2.5z"/><path d="m99.024 103.125c.692 1.198 2.223 1.604 3.415.915 1.196-.69 1.605-2.219.915-3.415l-2.391-4.141c-.69-1.196-2.22-1.608-3.415-.915-1.196.69-1.605 2.219-.915 3.415z"/><path d="m76.171 121.276 4.141 2.391c1.196.691 2.725.28 3.415-.915.69-1.196.281-2.725-.915-3.415l-4.141-2.391c-1.197-.692-2.726-.28-3.415.915-.691 1.196-.281 2.725.915 3.415z"/><path d="m76.878 148.313c0-1.381-1.119-2.5-2.5-2.5h-4.782c-1.381 0-2.5 1.119-2.5 2.5s1.119 2.5 2.5 2.5h4.782c1.381 0 2.5-1.119 2.5-2.5z"/><path d="m179.122 148.313c0 1.381 1.119 2.5 2.5 2.5h4.782c1.381 0 2.5-1.119 2.5-2.5s-1.119-2.5-2.5-2.5h-4.782c-1.381 0-2.5 1.119-2.5 2.5z"/><path d="m83.727 173.874c-.69-1.196-2.22-1.607-3.415-.915l-4.141 2.391c-1.196.69-1.605 2.219-.915 3.415.691 1.198 2.222 1.605 3.415.915l4.141-2.391c1.196-.69 1.605-2.219.915-3.415z"/><path d="m175.688 123.667 4.141-2.391c1.196-.69 1.605-2.219.915-3.415-.69-1.195-2.22-1.607-3.415-.915l-4.141 2.391c-1.196.69-1.605 2.219-.915 3.415.692 1.198 2.223 1.604 3.415.915z"/><path d="m102.439 192.586c-1.198-.692-2.725-.28-3.415.915l-2.391 4.141c-.69 1.196-.281 2.725.915 3.415 1.196.691 2.725.28 3.415-.915l2.391-4.141c.69-1.196.281-2.725-.915-3.415z"/><path d="m153.561 104.04c1.196.691 2.725.28 3.415-.915l2.391-4.141c.69-1.196.281-2.725-.915-3.415-1.199-.693-2.725-.281-3.415.915l-2.391 4.141c-.69 1.196-.281 2.725.915 3.415z"/><path d="m228.45 131.67c1.337-.243 2.262-1.521 2.01-2.91-.25-1.34-1.57-2.25-2.92-2.01-1.35.26-2.25 1.56-2 2.92.262 1.404 1.633 2.254 2.91 2z"/><path d="m41.19 200.85c-1.174.742-1.489 2.312-.75 3.46.766 1.157 2.283 1.487 3.46.74 1.16-.75 1.49-2.3.74-3.46 0 0 0 0 0-.01-.73-1.11-2.33-1.45-3.45-.73z"/><path d="m232.19 147.81c0-2.98-.12-5.97-.37-8.9-.12-1.36-1.34-2.39-2.7-2.28-1.38.11-2.4 1.33-2.28 2.7.23 2.8.35 5.65.35 8.48 0 54.827-44.373 99.19-99.19 99.19-30.4 0-58.71-13.67-77.67-37.49-.83-1.05-2.46-1.23-3.51-.4-1.085.876-1.258 2.423-.41 3.5 0 .01.01.01.01.01 19.716 24.813 49.567 39.38 81.57 39.38h.01c57.448 0 104.19-46.524 104.19-104.19z"/><path d="m23.81 147.81c0 16.043 3.619 32.304 11.5 47.64.639 1.234 2.173 1.702 3.37 1.07 1.22-.63 1.71-2.14 1.08-3.36-7.27-14.11-10.95-29.37-10.95-45.35-.012-49.782 36.597-90.707 83.381-97.928 1.713 3.345 4.616 8.187 9.718 15.018 2.991 4.003 9.106 4.104 12.179-.002 4.913-6.55 8.042-11.714 9.731-15.028 4.936.791 10.005 1.997 15.6 3.83h.01c30.94 10.32 54.81 35.17 63.87 66.48.37 1.29 1.8 2.08 3.09 1.7 1.33-.38 2.09-1.77 1.71-3.09-8.11-27.996-28.064-52.335-56.09-65.438 8.853-1.698 16.154-8.082 18.885-16.972 1.488-4.878-2.251-9.756-7.319-9.756l-22.766-.005c-12.218-.004-11.717.05-11.717.05-2.143.118-4.191.506-6.21 1.171-3.079-3.879-7.496-6.385-12.382-7.025v-14.315c0-1.381-1.119-2.5-2.5-2.5s-2.5 1.119-2.5 2.5v14.316c-4.85.637-9.245 3.113-12.32 6.945-2.054-.644-4.127-1.009-6.29-1.102-.998-.065-5.314-.04-10.56-.04-1.38 0-2.5 1.12-2.5 2.5 0 1.387 1.113 2.5 2.5 2.5 9.746 0 11.168-.161 14.14.57-1.828 4.135-1.943 8.473-.382 12.95-5.039.869-10.4 2.272-14.695 3.68-4.5 0-20.356 1.736-25.173-13.9-.504-1.732.908-3.289 2.54-3.3h3.57c1.38 0 2.5-1.12 2.5-2.5 0-1.37-1.12-2.5-2.5-2.5-.01 0-.01 0-.01 0h-3.56c-4.889.023-8.809 4.665-7.32 9.77 2.544 8.267 9.47 15.036 18.647 16.908-35.915 16.709-60.277 52.979-60.277 94.513zm136.998-116.191 22.768.005c1.738 0 3.038 1.657 2.539 3.292-2.555 8.314-10.122 13.901-18.83 13.901h-6.698c-5.366-1.718-9.622-2.78-14.694-3.672 1.567-4.486 1.545-8.674-.331-12.889 3.416-.898 5.784-.639 15.246-.637zm-20.699 14.453c-2.349 5.048-6.28 10.793-9.609 15.269 0-9.44 0-19.786 0-23.852l3.859 2.787c1.122.809 2.684.554 3.491-.563.808-1.12.556-2.682-.563-3.491l-6.787-4.902v-5.444c7.608 1.367 14.627 9.411 9.609 20.196zm-14.609-20.172v13.047l-6.945 5.016c-1.119.809-1.371 2.371-.563 3.491.807 1.117 2.369 1.372 3.491.563l4.018-2.902v16.226c-3.507-4.716-9.02-12.693-10.824-18.273-2.716-8.39 3.516-15.851 10.823-17.168z"/><path d="m128 73.67c-41.16 0-74.64 33.49-74.64 74.64 0 41.16 33.48 74.64 74.64 74.64 41.309 0 74.64-33.699 74.64-74.64 0-41.15-33.48-74.64-74.64-74.64zm8.26 74.64c0 4.462-3.626 8.26-8.26 8.26-4.55 0-8.26-3.7-8.26-8.26 0-4.928 4.092-8.26 8.26-8.26 4.216 0 8.26 3.352 8.26 8.26zm-8.26 69.64c-38.4 0-69.64-31.24-69.64-69.64 0-37.56 29.9-68.25 67.14-69.57v56.56c-6.12 1.17-10.76 6.56-10.76 13.01 0 7.31 5.95 13.26 13.26 13.26 1.52 0 2.98-.27 4.34-.74 18.945 32.801 9.269 16.06 28.29 48.98-9.74 5.19-20.85 8.14-32.63 8.14zm36.95-10.65-28.28-48.98c.48-.41.92-.86 1.34-1.34l48.98 28.28c-5.6 8.9-13.14 16.45-22.04 22.04zm24.55-26.36c-13.916-8.041-1.531-.891-48.99-28.28 2.71-7.77-2.23-15.87-10.01-17.36v-56.56c37.24 1.32 67.14 32.01 67.14 69.57 0 11.79-2.95 22.89-8.14 32.63z"/><circle cx="86.33" cy="29.12" r="2.5"/><path d="m92.81 148.31c0 10.91 4.93 21.02 13.54 27.74 1.032.82 2.624.697 3.51-.43.85-1.09.66-2.66-.43-3.51-7.38-5.77-11.62-14.45-11.62-23.8 0-8.544 3.53-16.476 9.65-22.136l-1.001 6.604c-.229 1.508.937 2.875 2.475 2.875 1.215 0 2.281-.888 2.469-2.126l1.921-12.677c.202-1.333-.734-2.643-2.097-2.846l-12.677-1.921c-1.366-.21-2.639.732-2.846 2.097s.732 2.64 2.097 2.846l6.784 1.028c-7.645 6.82-11.775 16.354-11.775 26.256z"/><path d="m115.7 181.3c1.409.503 2.762-.27 3.22-1.47.49-1.32-.208-2.745-1.46-3.21 0 0 0-.01-.01-.01-1.26-.47-2.75.22-3.22 1.47-.483 1.301.182 2.73 1.47 3.22z"/><path d="m126.2 183.47c2.561.138 5.604-.042 8.56-.62 1.36-.26 2.24-1.58 1.98-2.93-.26-1.33-1.57-2.23-2.93-1.97-2.831.54-5.021.62-7.36.53-1.38-.08-2.55 1-2.62 2.37-.066 1.468 1.069 2.561 2.37 2.62z"/><path d="m22.679 233.174c7.044 2.328 7.84 5.759 9.044 10.952.596 2.567 4.273 2.573 4.871 0 2-8.624 4.955-9.6 9.044-10.952 2.282-.753 2.28-3.994 0-4.747-3.916-1.294-6.995-2.12-9.045-10.953-.598-2.578-4.273-2.576-4.87 0-2.002 8.625-4.957 9.602-9.045 10.952-2.282.754-2.279 3.996.001 4.748zm11.49-7.637c1.355 2.581 2.935 4.194 4.561 5.29-1.71 1.136-3.229 2.705-4.512 5.106-1.02-1.842-2.492-3.582-4.764-5.071 1.795-1.163 3.383-2.786 4.715-5.325z"/><path d="m233.321 63.452c-3.916-1.294-6.995-2.12-9.045-10.953-.598-2.578-4.273-2.577-4.87 0-2.002 8.625-4.957 9.602-9.045 10.952-2.283.754-2.28 3.996 0 4.748 7.044 2.328 7.84 5.759 9.044 10.952.596 2.567 4.273 2.573 4.871 0 2-8.624 4.955-9.6 9.044-10.952 2.283-.754 2.281-3.994.001-4.747zm-11.421 7.506c-1.02-1.842-2.492-3.582-4.764-5.071 1.795-1.162 3.384-2.786 4.715-5.324 1.355 2.581 2.935 4.194 4.561 5.29-1.71 1.135-3.229 2.704-4.512 5.105z"/></svg>