<svg id="Capa_1" enable-background="new 0 0 512 512" height="512" viewBox="0 0 512 512" width="512" xmlns="http://www.w3.org/2000/svg"><g><g><path d="m346.305 57.654h-72.636c-9.537 0-17.268-7.731-17.268-17.268v-15.114c0-9.537 7.731-17.268 17.268-17.268h72.636c9.537 0 17.268 7.731 17.268 17.268v15.114c0 9.537-7.731 17.268-17.268 17.268z" fill="#ffe27a"/><path d="m346.305 39.654h-72.636c-9.05 0-16.461-6.965-17.195-15.825-.039.477-.073.956-.073 1.443v15.114c0 9.537 7.731 17.268 17.268 17.268h72.636c9.537 0 17.268-7.731 17.268-17.268v-15.114c0-.487-.033-.966-.073-1.443-.735 8.86-8.145 15.825-17.195 15.825z" fill="#f9cf58"/><path d="m440.826 157.26 22.368-27.836c5.583-6.948 4.477-17.108-2.471-22.691l-14.261-11.46c-6.948-5.584-17.107-4.477-22.691 2.471l-22.767 28.331c14.702 8.519 28.098 19.039 39.822 31.185z" fill="#ff4755"/><path d="m309.987 101.685c8.583 0 17.022.608 25.287 1.759v-45.79h-50.575v45.79c8.266-1.15 16.705-1.759 25.288-1.759z" fill="#ffba57"/><path d="m267.142 164.794-21.426-3.221c-2.606-13.894-8.068-26.78-15.757-38.024l12.877-17.434c2.254-3.052 1.937-7.293-.745-9.975l-11.091-11.091c-2.682-2.683-6.924-3-9.975-.745l-17.434 12.877c-11.245-7.689-24.13-13.151-38.024-15.757l-3.221-21.426c-.564-3.752-3.787-6.527-7.581-6.527h-15.684c-3.794 0-7.017 2.775-7.581 6.527l-3.221 21.426c-13.894 2.606-26.78 8.068-38.024 15.757l-17.433-12.877c-3.052-2.254-7.293-1.937-9.975.745l-11.09 11.09c-2.683 2.683-3 6.924-.746 9.975l12.877 17.434c-7.689 11.245-13.151 24.13-15.757 38.024l-21.426 3.221c-3.752.564-6.526 3.787-6.526 7.581v15.684c0 3.794 2.775 7.017 6.526 7.581l21.426 3.221c2.606 13.894 8.068 26.779 15.757 38.024l-12.877 17.434c-2.254 3.052-1.937 7.293.746 9.975l11.09 11.09c2.683 2.683 6.924 3 9.975.746l17.434-12.877c11.245 7.689 24.13 13.151 38.024 15.757l3.221 21.426c.564 3.752 3.787 6.526 7.581 6.526h15.684c3.794 0 7.017-2.775 7.581-6.526l3.221-21.426c13.894-2.606 26.779-8.068 38.024-15.757l17.434 12.877c3.052 2.254 7.293 1.937 9.975-.746l11.091-11.09c2.683-2.683 3-6.924.745-9.975l-12.877-17.434c7.689-11.245 13.151-24.13 15.757-38.024l21.426-3.221c3.752-.564 6.526-3.787 6.526-7.581v-15.684c0-3.793-2.775-7.016-6.527-7.58zm-120.218 64.422c-27.062 0-49-21.938-49-49s21.938-49 49-49 49 21.938 49 49-21.939 49-49 49z" fill="#8bcaff"/><path d="m195.923 180.217c0 27.062-21.938 49-49 49-10.637 0-20.473-3.4-28.506-9.157-5.568 16.817-8.995 34.611-9.932 53.063 6.301 2.609 12.923 4.599 19.794 5.887l3.221 21.426c.564 3.752 3.787 6.526 7.581 6.526h15.684c3.794 0 7.017-2.775 7.581-6.526l3.221-21.426c13.894-2.606 26.779-8.068 38.024-15.757l17.434 12.877c3.052 2.254 7.293 1.937 9.975-.746l11.091-11.09c2.683-2.683 3-6.924.745-9.975l-12.877-17.434c7.689-11.245 13.151-24.13 15.757-38.024l21.426-3.221c3.752-.564 6.526-3.787 6.526-7.581v-15.684c0-3.794-2.775-7.017-6.526-7.581l-21.426-3.221c-2.606-13.894-8.068-26.78-15.757-38.024l12.877-17.434c2.254-3.052 1.937-7.293-.745-9.975l-1.958-1.958c-26.06 9.618-49.592 24.458-69.318 43.257 14.977 8.383 25.108 24.393 25.108 42.778z" fill="#60b8ff"/><circle cx="309.987" cy="283.52" fill="#ffe27a" r="181.835"/><path d="m309.987 447.355c-97.407 0-176.92-76.591-181.612-172.835-.145 2.982-.223 5.982-.223 9 0 100.425 81.41 181.835 181.835 181.835s181.835-81.41 181.835-181.835c0-3.018-.078-6.018-.223-9-4.692 96.243-84.206 172.835-181.612 172.835z" fill="#f9cf58"/><path d="m335.274 83.33c-8.284-1.036-16.723-1.574-25.287-1.574s-17.003.538-25.287 1.574v20.114c8.266-1.15 16.705-1.759 25.287-1.759 8.583 0 17.022.608 25.287 1.759z" fill="#ffac3e"/><path d="m413.617 110.38-12.613 15.697c14.703 8.518 28.098 19.038 39.822 31.184l12.574-15.647c-11.869-11.994-25.23-22.505-39.783-31.234z" fill="#fc2b3a"/><circle cx="309.987" cy="283.52" fill="#fff5f5" r="141.021"/><path d="m309.987 406.541c-74.859 0-136.084-58.332-140.727-132.021-.188 2.977-.294 5.976-.294 9 0 77.884 63.137 141.021 141.021 141.021s141.021-63.137 141.021-141.021c0-3.024-.106-6.023-.294-9-4.643 73.689-65.868 132.021-140.727 132.021z" fill="#efe2dd"/><ellipse cx="309.987" cy="283.52" fill="#ff4755" rx="19.248" ry="19.248" transform="matrix(.446 -.895 .895 .446 -82.045 434.472)"/><path d="m309.987 284.768c-7.378 0-13.778-4.155-17.009-10.248-1.425 2.687-2.239 5.747-2.239 9 0 10.63 8.618 19.248 19.248 19.248 10.631 0 19.248-8.618 19.248-19.248 0-3.253-.814-6.313-2.239-9-3.231 6.093-9.632 10.248-17.009 10.248z" fill="#fc2b3a"/><path d="m279.135 373.712-19.635-2.952c-2.388-12.733-7.393-24.541-14.439-34.846l11.801-15.977c2.066-2.796 1.775-6.683-.683-9.142l-10.163-10.163c-2.458-2.458-6.345-2.749-9.142-.683l-15.976 11.801c-10.305-7.046-22.113-12.051-34.846-14.439l-2.952-19.635c-.517-3.438-3.47-5.981-6.947-5.981h-14.373c-3.477 0-6.43 2.543-6.947 5.981l-2.952 19.635c-12.733 2.388-24.541 7.393-34.846 14.439l-15.977-11.801c-2.796-2.066-6.683-1.775-9.142.683l-10.163 10.163c-2.458 2.458-2.749 6.345-.683 9.142l11.801 15.976c-7.046 10.305-12.051 22.113-14.44 34.846l-19.635 2.952c-3.438.517-5.981 3.47-5.981 6.947v14.373c0 3.477 2.543 6.43 5.981 6.947l19.635 2.952c2.388 12.733 7.393 24.541 14.44 34.846l-11.801 15.978c-2.066 2.797-1.775 6.683.683 9.142l10.163 10.163c2.458 2.458 6.345 2.749 9.142.683l15.977-11.801c10.305 7.046 22.113 12.051 34.846 14.44l2.952 19.635c.517 3.438 3.471 5.981 6.947 5.981h14.373c3.477 0 6.43-2.543 6.947-5.981l2.952-19.635c12.733-2.388 24.541-7.393 34.846-14.44l15.976 11.801c2.797 2.066 6.683 1.775 9.142-.683l10.163-10.163c2.458-2.458 2.749-6.345.683-9.142l-11.801-15.977c7.046-10.305 12.051-22.113 14.439-34.846l19.635-2.952c3.438-.517 5.981-3.471 5.981-6.947v-14.373c0-3.476-2.543-6.43-5.981-6.947zm-110.169 48.498c-18.978 0-34.363-15.385-34.363-34.364s15.385-34.364 34.363-34.364c18.979 0 34.364 15.385 34.364 34.364-.001 18.978-15.386 34.364-34.364 34.364z" fill="#ff4755"/><path d="m203.329 405.846c0-3.115-.422-6.13-1.199-9-3.956 14.612-17.302 25.364-33.165 25.364s-29.208-10.752-33.165-25.364c-.777 2.87-1.199 5.885-1.199 9 0 18.978 15.385 34.364 34.363 34.364 18.98 0 34.365-15.386 34.365-34.364z" fill="#fc2b3a"/></g><g><path d="m310.093 200.397c-4.151 0-7.515 3.364-7.515 7.515v49.941c-11.13 3.258-19.286 13.552-19.286 25.722 0 14.778 12.023 26.801 26.801 26.801s26.801-12.023 26.801-26.801c0-12.169-8.156-22.464-19.286-25.722v-49.941c0-4.151-3.364-7.515-7.515-7.515zm11.771 83.178c0 6.49-5.281 11.771-11.771 11.771s-11.771-5.281-11.771-11.771c0-6.491 5.281-11.772 11.771-11.772s11.771 5.28 11.771 11.772z"/><path d="m451.068 156.771 18.391-22.888c3.964-4.932 5.769-11.112 5.084-17.402s-3.778-11.937-8.71-15.9l-14.291-11.483c-10.179-8.181-25.12-6.552-33.301 3.627l-18.882 23.498c-17.375-9.306-36.356-15.986-56.414-19.503v-31.942h3.537c13.684 0 24.817-11.133 24.817-24.817v-15.145c.001-13.684-11.132-24.816-24.816-24.816h-72.78c-13.684 0-24.816 11.132-24.816 24.816v15.144c0 13.684 11.132 24.817 24.816 24.817h3.538v31.943c-8.721 1.529-17.235 3.661-25.505 6.341.548-4.491-.932-9.125-4.359-12.551l-11.113-11.115c-5.361-5.358-13.676-5.979-19.773-1.476l-13.283 9.811c-9.685-5.947-20.13-10.275-31.161-12.914l-2.454-16.324c-1.127-7.496-7.446-12.937-15.027-12.937h-15.715c-7.581 0-13.9 5.44-15.027 12.937l-2.454 16.324c-11.032 2.639-21.476 6.967-31.161 12.914l-13.283-9.811c-6.095-4.503-14.412-3.884-19.773 1.478l-11.113 11.113c-5.361 5.361-5.982 13.677-1.478 19.774l9.812 13.283c-5.947 9.685-10.276 20.128-12.914 31.162l-16.323 2.453c-7.497 1.126-12.938 7.446-12.938 15.028v15.715c0 7.579 5.44 13.899 12.937 15.028l16.324 2.453c2.639 11.033 6.967 21.476 12.914 31.162l-9.812 13.283c-4.504 6.097-3.883 14.413 1.478 19.774l11.112 11.112c5.362 5.36 13.678 5.982 19.773 1.478l13.283-9.812c9.401 5.773 19.523 9.998 30.198 12.655.041 5.077.278 10.209.731 15.335-1.376.75-2.742 1.523-4.087 2.341l-11.833-8.741c-5.84-4.312-13.805-3.718-18.938 1.416l-10.183 10.183c-5.135 5.133-5.73 13.098-1.416 18.939l8.74 11.833c-5.298 8.708-9.181 18.078-11.59 27.965l-14.543 2.186c-7.178 1.08-12.389 7.133-12.389 14.392v14.401c0 7.26 5.211 13.313 12.39 14.393l14.541 2.186c2.409 9.887 6.292 19.257 11.59 27.965l-8.739 11.832c-4.315 5.839-3.72 13.803 1.414 18.94l10.184 10.183c5.134 5.133 13.098 5.728 18.938 1.415l11.833-8.741c8.708 5.297 18.077 9.181 27.965 11.59l2.186 14.541c1.08 7.179 7.133 12.39 14.392 12.39h14.401c7.26 0 13.313-5.211 14.392-12.39l2.186-14.541c9.888-2.409 19.257-6.293 27.965-11.59l11.833 8.742c5.84 4.311 13.803 3.716 18.938-1.416l10.184-10.184c.93-.93 1.706-1.956 2.336-3.042 15.085 3.783 30.608 5.704 46.264 5.704 32.783 0 65.098-8.498 93.452-24.577 27.486-15.587 50.862-38.005 67.602-64.83 2.198-3.521 1.124-8.157-2.396-10.353-3.52-2.198-8.156-1.124-10.353 2.396-15.42 24.708-36.951 45.357-62.266 59.712-26.097 14.8-55.848 22.622-86.038 22.622-15.979 0-31.805-2.164-47.094-6.434-.032-.045-.058-.091-.091-.135l-8.741-11.833c3.014-4.955 5.554-10.131 7.641-15.488 15.504 5.325 31.709 8.026 48.284 8.026 82.056 0 148.813-66.757 148.813-148.813 0-51.738-26.245-98.983-70.206-126.382-3.523-2.195-8.157-1.119-10.352 2.403s-1.119 8.157 2.403 10.352c6.629 4.131 12.798 8.775 18.494 13.845l-13.653 13.653c-5.771 5.916 1.993 17.721 10.628 10.628l13.682-13.682c20.059 22.357 32.063 50.947 33.754 81.668h-19.276c-4.151 0-7.515 3.364-7.515 7.515s3.364 7.515 7.515 7.515h19.28c-1.738 31.237-14.242 59.644-33.853 81.571l-13.587-13.587c-2.935-2.934-7.693-2.934-10.628 0-2.935 2.935-2.935 7.693 0 10.628l13.587 13.587c-21.928 19.612-50.335 32.116-81.572 33.854v-19.281c0-4.151-3.364-7.515-7.515-7.515s-7.515 3.364-7.515 7.515v19.281c-11.112-.613-22.004-2.588-32.551-5.901l10.271-1.544c7.18-1.079 12.391-7.132 12.391-14.393v-14.401c0-7.258-5.21-13.311-12.389-14.392 0-.001-.001-.001-.002-.001l-14.54-2.185c-2.409-9.886-6.293-19.257-11.59-27.965l8.742-11.834c4.312-5.841 3.716-13.805-1.417-18.938l-10.183-10.182c-5.133-5.134-13.098-5.729-18.939-1.417l-11.833 8.741c-8.708-5.298-18.078-9.18-27.965-11.589l-2.185-14.54c-.993-6.608-6.203-11.537-12.686-12.283 3.754-26.038 15.086-50.273 32.629-69.88l13.635 13.634c5.894 6.377 17.345-2.58 10.627-10.628l-13.629-13.629c22.68-20.285 51.341-32.124 81.614-33.81v19.279c0 4.151 3.364 7.515 7.515 7.515s7.515-3.364 7.515-7.515v-19.282c12.868.711 25.471 3.243 37.559 7.567 3.908 1.398 8.208-.636 9.607-4.544 1.398-3.908-.636-8.209-4.544-9.607-16.062-5.746-32.93-8.66-50.137-8.66-37.573 0-73.447 14.042-101.013 39.54-25.701 23.772-42.066 55.484-46.542 89.911h-.944c-7.26 0-13.312 5.211-14.392 12.391l-2.186 14.541c-3.153.768-6.246 1.703-9.289 2.769-.205-3.463-.312-6.917-.312-10.338 0-96.318 78.36-174.679 174.678-174.679 96.319 0 174.679 78.36 174.679 174.679 0 23.109-4.438 45.556-13.193 66.721-1.586 3.835.237 8.23 4.073 9.816.939.388 1.912.572 2.869.572 2.95 0 5.75-1.749 6.947-4.645 9.511-22.995 14.334-47.375 14.334-72.465.002-48.705-18.454-93.177-48.731-126.804zm-298.007 148.008c3.144-.589 5.57-3.105 6.046-6.268l2.897-19.269h13.582l2.897 19.269c.475 3.163 2.901 5.679 6.046 6.268 11.548 2.166 22.334 6.637 32.058 13.286 2.64 1.805 6.134 1.742 8.707-.159l15.678-11.581 9.604 9.605-11.581 15.678c-1.9 2.573-1.964 6.067-.159 8.707 6.65 9.725 11.12 20.511 13.285 32.058.589 3.144 3.106 5.571 6.27 6.046l19.268 2.895v13.583l-19.269 2.896c-3.163.475-5.679 2.902-6.269 6.046-2.165 11.547-6.635 22.333-13.285 32.058-1.805 2.64-1.742 6.134.159 8.707l11.581 15.678-9.604 9.605-15.678-11.581c-2.573-1.901-6.066-1.965-8.707-.159-9.724 6.649-20.51 11.119-32.058 13.286-3.144.59-5.57 3.105-6.046 6.268l-2.897 19.268h-13.582l-2.897-19.268c-.476-3.163-2.901-5.678-6.046-6.268-11.549-2.167-22.335-6.637-32.058-13.286-2.64-1.806-6.135-1.743-8.707.159l-15.678 11.581-9.604-9.605 11.581-15.678c1.9-2.572 1.964-6.067.158-8.707-6.649-9.724-11.119-20.51-13.285-32.058-.59-3.144-3.105-5.571-6.269-6.046l-19.269-2.896v-13.583l19.269-2.895c3.163-.475 5.679-2.902 6.269-6.046 2.166-11.548 6.636-22.334 13.285-32.058 1.805-2.64 1.742-6.134-.158-8.707l-11.582-15.678 9.604-9.605 15.678 11.581c2.572 1.899 6.066 1.963 8.707.159 9.725-6.649 20.51-11.12 32.059-13.286zm110.855-264.819v-15.144c0-5.396 4.39-9.787 9.787-9.787h72.78c5.397 0 9.788 4.39 9.788 9.787v15.144c0 5.397-4.391 9.788-9.788 9.788h-11.052-50.675-11.053c-5.397 0-9.787-4.39-9.787-9.788zm-178.452 217.262-17.468 12.903c-.065.047-.158.041-.216-.018l-11.112-11.112c-.059-.059-.066-.15-.016-.216l12.903-17.468c1.9-2.572 1.964-6.067.159-8.707-7.31-10.691-12.224-22.548-14.605-35.243-.59-3.144-3.106-5.571-6.269-6.046l-21.468-3.226c-.082-.013-.142-.082-.142-.165v-15.714c0-.082.061-.153.141-.164l21.469-3.227c3.163-.476 5.679-2.902 6.269-6.046 2.381-12.696 7.295-24.553 14.605-35.243 1.805-2.64 1.742-6.134-.159-8.706l-12.903-17.468c-.049-.067-.043-.158.016-.217l11.111-11.111c.059-.058.152-.068.217-.017l17.468 12.902c2.573 1.899 6.066 1.965 8.706.159 10.693-7.31 22.55-12.224 35.243-14.605 3.144-.589 5.571-3.105 6.046-6.268l3.227-21.469c.013-.082.082-.142.165-.142h15.715c.083 0 .152.06.165.142l3.227 21.469c.475 3.163 2.902 5.679 6.046 6.268 12.693 2.381 24.551 7.295 35.243 14.605 2.64 1.805 6.133 1.743 8.706-.159l17.467-12.903c.066-.05.159-.043.217.015l11.112 11.114c.059.059.066.15.016.216l-8.024 10.863c-15.332 7.308-29.536 16.612-42.272 27.578-10.536-10.455-24.637-16.339-39.762-16.339-18.179 0-35.374 8.823-45.996 23.603-2.423 3.37-1.654 8.066 1.716 10.487 1.328.954 2.861 1.414 4.38 1.414 2.337 0 4.641-1.087 6.108-3.13 7.807-10.86 20.439-17.345 33.793-17.345 10.895 0 21.068 4.158 28.76 11.565-19.171 19.327-34.222 42.743-43.711 68.812-15.753-6.091-26.63-21.485-26.63-38.795 0-4.151-3.365-7.515-7.515-7.515s-7.515 3.364-7.515 7.515c0 23.865 15.193 45.058 37.09 53.13-3.237 11.738-5.376 23.926-6.289 36.45-9.504-2.724-18.466-6.935-26.728-12.585-2.64-1.806-6.133-1.743-8.706.159zm206.807-162.512v-29.932h35.645v29.932c-5.87-.55-11.812-.844-17.823-.844s-11.953.294-17.822.844zm120.187 29.209 17.5-21.779c2.991-3.719 8.452-4.316 12.172-1.326l14.29 11.482c1.802 1.449 2.934 3.513 3.184 5.812.25 2.298-.41 4.557-1.859 6.359l-17.243 21.458c-8.625-8.174-18.011-15.55-28.044-22.006z"/><path d="m168.794 430.053c23.13 0 41.946-18.817 41.946-41.947s-18.817-41.946-41.946-41.946-41.946 18.816-41.946 41.946c0 23.129 18.817 41.947 41.946 41.947zm-26.917-41.947c0-4.215.976-8.206 2.711-11.761 7.817 13.935 17.33 26.77 28.423 38.346-1.374.217-2.782.333-4.217.333-14.842-.001-26.917-12.076-26.917-26.918zm53.834 0c0 7.718-3.27 14.683-8.491 19.595-12.805-12.662-23.475-27.059-31.815-42.93 3.947-2.273 8.517-3.581 13.389-3.581 14.842 0 26.917 12.074 26.917 26.916z"/></g></g></svg>