<?xml version="1.0" encoding="iso-8859-1"?>
<!-- Generator: Adobe Illustrator 19.0.0, SVG Export Plug-In . SVG Version: 6.00 Build 0)  -->
<svg version="1.1" id="Layer_1" xmlns="http://www.w3.org/2000/svg" xmlns:xlink="http://www.w3.org/1999/xlink" x="0px" y="0px"
	 viewBox="0 0 512 512" style="enable-background:new 0 0 512 512;" xml:space="preserve">
<polygon style="fill:#BCBCBC;" points="197.84,90.881 168.72,56 58.16,56 23.28,90.881 23.28,137.441 488.72,137.441 488.72,90.881 
	"/>
<rect y="137.442" style="fill:#E5E5E5;" width="512" height="318.558"/>
<rect x="52.399" y="114.163" style="fill:#FFFFFF;" width="407.281" height="23.28"/>
<path style="fill:#E21B1B;" d="M104.84,369.601h280.056l62.048-145.736H104.84V369.601z"/>
<g>
	<path style="fill:#FFFFFF;" d="M149.601,314.657c4.798,2.793,10.249,4.267,15.8,4.272c5.6,0,10.632-2.584,10.632-7.848
		c0-3.776-2.88-6.256-9.048-9.44c-7.152-3.872-13.904-9.048-13.904-17.792c0-13.512,11.824-21.76,26.4-21.76
		c5.47-0.258,10.913,0.906,15.8,3.376l-4.472,11.92c-3.868-1.997-8.167-3.019-12.521-2.976c-6.656,0-10.136,3.376-10.136,7.056
		c0,3.872,4.072,6.256,9.736,9.44c7.543,2.747,12.759,9.68,13.312,17.688c0,14.904-12.32,22.552-27.2,22.552
		c-6.737,0.364-13.427-1.309-19.2-4.8L149.601,314.657z"/>
	<path style="fill:#FFFFFF;" d="M215.2,312.801l-7.944,17.392h-15.2l32.624-66.992h18.4l7.84,66.968h-15.016l-1.392-17.368H215.2
		V312.801z M233.88,301.873l-1.288-14.4c-0.296-3.68-0.696-9.04-0.992-13.12h-0.16c-1.696,4.08-3.576,9.24-5.368,13.12l-6.656,14.4
		H233.88z"/>
	<path style="fill:#FFFFFF;" d="M267.697,330.16l-8.352-66.96h14.816l2.976,31.888c0.696,7.056,1.192,13.6,1.6,20.568h0.192
		c2.488-6.552,5.664-13.712,8.944-20.664l14.992-31.792h16l-34.576,66.96L267.697,330.16L267.697,330.16z"/>
	<path style="fill:#FFFFFF;" d="M357.504,301.737h-23.84l-3.08,16.2h26.728l-2.28,12.216h-41.04l12.72-66.968h39.64l-2.4,12.216
		h-25.216l-2.784,14.304h23.84L357.504,301.737z"/>
</g>
<polygon style="fill:#FF3366;" points="182.672,224.016 197.992,239.344 373.728,239.344 390.345,255.961 433.769,255.961 
	446.944,223.849 "/>
<g>
</g>
<g>
</g>
<g>
</g>
<g>
</g>
<g>
</g>
<g>
</g>
<g>
</g>
<g>
</g>
<g>
</g>
<g>
</g>
<g>
</g>
<g>
</g>
<g>
</g>
<g>
</g>
<g>
</g>
</svg>
