<svg height="496pt" viewBox="0 0 496 496" width="496pt" xmlns="http://www.w3.org/2000/svg"><g fill="#ff826e"><path d="m128 112c0 8.835938-7.164062 16-16 16s-16-7.164062-16-16 7.164062-16 16-16 16 7.164062 16 16zm0 0"/><path d="m40 112c0 8.835938-7.164062 16-16 16s-16-7.164062-16-16 7.164062-16 16-16 16 7.164062 16 16zm0 0"/><path d="m232 48c0 8.835938-7.164062 16-16 16s-16-7.164062-16-16 7.164062-16 16-16 16 7.164062 16 16zm0 0"/><path d="m274.640625 164.160156c3.28125 2.878906 5.359375 7.121094 5.359375 11.839844 0 8.800781-7.199219 16-16 16s-16-7.199219-16-16 7.199219-16 16-16c4.078125 0 7.839844 1.519531 10.640625 4.160156zm0 0"/><path d="m347.28125 84.71875c2.957031 2.882812 4.71875 6.882812 4.71875 11.28125 0 8.800781-7.199219 16-16 16-4.078125 0-7.839844-1.519531-10.640625-4.160156-3.28125-2.878906-5.359375-7.121094-5.359375-11.839844 0-8.800781 7.199219-16 16-16 4.398438 0 8.398438 1.761719 11.28125 4.71875zm0 0"/></g><path d="m360 192v92.160156c-10-7.039062-21.199219-12.398437-33.199219-15.839844l1.199219-4.320312v-72zm0 0" fill="#ffeaa7"/><path d="m296 232v32c-11.121094 0-21.839844 1.601562-32 4.640625v-36.640625zm0 0" fill="#ffeaa7"/><path d="m424 152v224h-16c0-21.121094-5.839844-40.800781-16-57.679688v-166.320312zm0 0" fill="#ffeaa7"/><path d="m456 88h32v288h-32zm0 0" fill="#ffeaa7"/><path d="m229.199219 286.078125c-11.757813 8.800781-21.679688 19.761719-29.199219 32.320313l-.238281-.160157c.160156-2.078125.238281-4.160156.238281-6.238281 0-39.761719-32.238281-72-72-72s-72 32.238281-72 72 32.238281 72 72 72c23.839844 0 44.878906-11.601562 58-29.359375-1.28125 6.960937-2 14.078125-2 21.359375 0 11.441406 1.679688 22.480469 4.878906 32.878906l-9.277344-6.640625c-7.523437 4.320313-15.679687 7.683594-24.320312 10l-3.28125 19.761719h-48l-3.28125-19.761719c-8.640625-2.316406-16.796875-5.679687-24.320312-10l-16.320313 11.601563-33.917969-33.917969 11.601563-16.320313c-4.320313-7.523437-7.683594-15.679687-10-24.320312l-19.761719-3.28125v-48l19.761719-3.28125c2.316406-8.640625 5.679687-16.796875 10-24.320312l-11.601563-16.320313 33.917969-33.917969 16.320313 11.601563c7.523437-4.320313 15.679687-7.683594 24.320312-10l3.28125-19.761719h48l3.28125 19.761719c8.640625 2.316406 16.796875 5.679687 24.320312 10l16.320313-11.601563 33.917969 33.917969-11.601563 16.320313c4.320313 7.523437 7.683594 15.679687 10 24.320312zm0 0" fill="#ffc729"/><path d="m200 312c0 2.078125-.078125 4.160156-.238281 6.238281l.238281.160157c-6.640625 10.960937-11.441406 23.203124-13.921875 36.160156l-.078125.082031c-13.121094 17.757813-34.160156 29.359375-58 29.359375-39.761719 0-72-32.238281-72-72s32.238281-72 72-72 72 32.238281 72 72zm-32 0c0-22.078125-17.921875-40-40-40s-40 17.921875-40 40 17.921875 40 40 40 40-17.921875 40-40zm0 0" fill="#fcd770"/><path d="m392 318.320312c10.160156 16.878907 16 36.558594 16 57.679688 0 61.839844-50.160156 112-112 112-50.398438 0-93.039062-33.28125-107.121094-79.121094-3.199218-10.398437-4.878906-21.4375-4.878906-32.878906 0-7.28125.71875-14.398438 2-21.359375l.078125-.082031c2.480469-12.957032 7.28125-25.199219 13.921875-36.160156 7.519531-12.558594 17.441406-23.519532 29.199219-32.320313 10.320312-7.679687 22.082031-13.597656 34.800781-17.4375 10.160156-3.039063 20.878906-4.640625 32-4.640625 10.71875 0 21.039062 1.519531 30.800781 4.320312 12 3.441407 23.199219 8.800782 33.199219 15.839844 12.960938 8.960938 23.839844 20.640625 32 34.160156zm0 0" fill="#b4dd7f"/><path d="m376 376c0 44.183594-35.816406 80-80 80s-80-35.816406-80-80 35.816406-80 80-80 80 35.816406 80 80zm0 0" fill="#e6e9ed"/><path d="m154.671875 294.382812c3.488281 5.265626 5.328125 11.351563 5.328125 17.617188 0 17.648438-14.351562 32-32 32-6.265625 0-12.359375-1.839844-17.609375-5.320312l-8.839844 13.335937c7.882813 5.222656 17.023438 7.984375 26.449219 7.984375 26.472656 0 48-21.527344 48-48 0-9.414062-2.761719-18.558594-7.984375-26.457031zm0 0"/><path d="m128 280c6.265625 0 12.359375 1.839844 17.609375 5.320312l8.839844-13.335937c-7.882813-5.222656-17.023438-7.984375-26.449219-7.984375-26.472656 0-48 21.527344-48 48 0 9.414062 2.761719 18.558594 7.984375 26.457031l13.34375-8.832031c-3.488281-5.273438-5.328125-11.359375-5.328125-17.625 0-17.648438 14.351562-32 32-32zm0 0"/><path d="m288 336v48h32v-16h-16v-32zm0 0"/><path d="m296 288c-20.246094 0-40.023438 7.054688-55.6875 19.871094l10.144531 12.386718c10.726563-8.785156 23.839844-14.210937 37.542969-15.753906v15.496094h16v-15.527344c33.320312 3.703125 59.824219 30.214844 63.527344 63.527344h-15.527344v16h15.496094c-1.542969 13.710938-6.96875 26.816406-15.753906 37.550781l12.378906 10.136719c12.816406-15.664062 19.878906-35.441406 19.878906-55.6875 0-48.519531-39.480469-88-88-88zm0 0"/><path d="m304 447.496094v-15.496094h-16v15.527344c-33.320312-3.703125-59.824219-30.214844-63.527344-63.527344h15.527344v-16h-15.496094c1.542969-13.710938 6.96875-26.816406 15.753906-37.550781l-12.378906-10.136719c-12.816406 15.664062-19.878906 35.441406-19.878906 55.6875 0 48.519531 39.480469 88 88 88 20.246094 0 40.023438-7.054688 55.6875-19.871094l-10.144531-12.386718c-10.726563 8.785156-23.832031 14.210937-37.542969 15.753906zm0 0"/><path d="m448 368h-16v-224h-48v150.6875c-4.886719-5.289062-10.238281-10.121094-16-14.464844v-96.222656h-48v74.414062c-5.207031-1.0625-10.574219-1.652343-16-2.015624v-32.398438h-48v39c-8.046875 2.855469-15.695312 6.542969-22.855469 10.96875-1.609375-4.457031-3.382812-8.832031-5.527343-13.007812l12.648437-17.714844-43.511719-43.527344-17.722656 12.65625c-5.335938-2.726562-10.910156-5.03125-16.671875-6.878906l-3.574219-21.496094h-61.5625l-3.574218 21.496094c-5.761719 1.847656-11.335938 4.152344-16.671876 6.878906l-17.71875-12.65625-43.515624 43.527344 12.648437 17.714844c-2.734375 5.328124-5.039063 10.902343-6.886719 16.671874l-21.503906 3.589844v61.554688l21.496094 3.582031c1.847656 5.769531 4.160156 11.34375 6.886718 16.671875l-12.648437 17.710938 43.511719 43.53125 17.722656-12.65625c5.335938 2.726562 10.910156 5.03125 16.671875 6.878906l3.574219 21.503906h61.5625l3.574218-21.496094c5.761719-1.847656 11.335938-4.152344 16.671876-6.878906l3.199218 2.285156c15.929688 47.625 60.867188 82.089844 113.777344 82.089844 63.472656 0 115.449219-49.558594 119.59375-112h80.40625v-304h-48zm-48-208h16v208h-.40625c-1.242188-18.695312-6.738281-36.214844-15.59375-51.609375zm-64 40h16v69.953125c-5.113281-2.714844-10.480469-4.984375-16-6.945313zm-64 40h16v16.40625c-5.425781.363281-10.792969.953125-16 2.019531zm-96.359375 155.265625c-6.992187 4.007813-14.535156 7.125-22.449219 9.269531l-4.953125 1.34375-3.023437 18.121094h-34.4375l-3.023438-18.121094-4.953125-1.34375c-7.90625-2.144531-15.457031-5.261718-22.449219-9.269531l-4.457031-2.554687-14.917969 10.664062-24.359374-24.351562 10.664062-14.933594-2.554688-4.457032c-4-6.96875-7.117187-14.511718-9.269531-22.441406l-1.335937-4.953125-18.121094-3.015625v-34.445312l18.121094-3.015625 1.34375-4.953125c2.160156-7.929688 5.269531-15.480469 9.269531-22.441406l2.554687-4.457032-10.664062-14.933594 24.359375-24.351562 14.917969 10.664062 4.457031-2.554687c6.992187-4.007813 14.535156-7.125 22.449219-9.269531l4.953125-1.34375 3.023437-18.121094h34.4375l3.023438 18.121094 4.953125 1.34375c7.90625 2.144531 15.457031 5.261718 22.449219 9.269531l4.457031 2.554687 14.917969-10.664062 24.359374 24.351562-10.664062 14.933594 2.554688 4.457032c3.453124 6.015624 6.109374 12.535156 8.199218 19.289062-4.679687 3.886719-8.976562 8.199219-13.015625 12.734375-7.289062-36.664063-39.6875-64.390625-78.457031-64.390625-44.113281 0-80 35.886719-80 80s35.886719 80 80 80c17.472656 0 34.28125-5.910156 48.007812-16.214844 0 .070313-.007812.144532-.007812.214844 0 6.199219.617188 12.238281 1.527344 18.183594zm16.160156-78.554687c-6.023437 10.554687-10.535156 22.058593-13.144531 34.289062-12.082031 15.65625-30.871094 25-50.65625 25-35.289062 0-64-28.710938-64-64s28.710938-64 64-64 64 28.710938 64 64c0 1.59375-.089844 3.152344-.199219 4.710938zm104.199219 163.289062c-57.34375 0-104-46.65625-104-104s46.65625-104 104-104 104 46.65625 104 104-46.65625 104-104 104zm168-384h16v272h-16zm0 0"/><path d="m448 0v16h17.191406l-56.597656 45.28125-24.59375-24.59375-37.71875 37.71875c-3.128906-1.503906-6.585938-2.40625-10.28125-2.40625-13.230469 0-24 10.769531-24 24 0 4.136719 1.152344 7.976562 3 11.375l-41.816406 46.464844c-2.832032-1.175782-5.925782-1.839844-9.183594-1.839844-.152344 0-.289062.039062-.441406.046875l-32.167969-85.789063c5.21875-4.402343 8.609375-10.90625 8.609375-18.257812 0-13.230469-10.769531-24-24-24s-24 10.769531-24 24c0 1.726562.199219 3.40625.550781 5.039062l-65.582031 40.351563c-4.113281-3.320313-9.28125-5.390625-14.96875-5.390625-10.414062 0-19.214844 6.710938-22.527344 16h-42.945312c-3.3125-9.289062-12.113282-16-22.527344-16-13.230469 0-24 10.769531-24 24s10.769531 24 24 24c10.414062 0 19.214844-6.710938 22.527344-16h42.953125c3.3125 9.289062 12.113281 16 22.527343 16 13.230469 0 24-10.769531 24-24 0-1.726562-.199218-3.40625-.550781-5.039062l65.582031-40.351563c4.105469 3.320313 9.273438 5.390625 14.960938 5.390625.152344 0 .289062-.039062.441406-.046875l32.167969 85.78125c-5.21875 4.410156-8.609375 10.914063-8.609375 18.265625 0 13.230469 10.769531 24 24 24s24-10.769531 24-24c0-4.136719-1.144531-7.976562-3-11.375l41.816406-46.464844c2.832032 1.175782 5.925782 1.839844 9.183594 1.839844 13.230469 0 24-10.769531 24-24 0-3.695312-.902344-7.152344-2.40625-10.28125l26.40625-26.40625 23.40625 23.40625 72.59375-58.070312v23.351562h16v-48zm-424 120c-4.414062 0-8-3.59375-8-8s3.585938-8 8-8 8 3.59375 8 8-3.585938 8-8 8zm88 0c-4.414062 0-8-3.59375-8-8s3.585938-8 8-8 8 3.59375 8 8-3.585938 8-8 8zm96-72c0-4.40625 3.585938-8 8-8s8 3.59375 8 8-3.585938 8-8 8-8-3.59375-8-8zm56 136c-4.414062 0-8-3.59375-8-8s3.585938-8 8-8 8 3.59375 8 8-3.585938 8-8 8zm72-80c-4.414062 0-8-3.59375-8-8s3.585938-8 8-8 8 3.59375 8 8-3.585938 8-8 8zm0 0"/></svg>