<svg id="Capa_1" enable-background="new 0 0 513.276 513.276" height="512" viewBox="0 0 513.276 513.276" width="512" xmlns="http://www.w3.org/2000/svg"><g><path d="m489.527 280.949-207.146 32.115-247.467-35.139-27.181 17.77c3.04 60.59 35.79 119.95 99.44 151.82 47.04 23.55 98.26 35.33 149.48 35.33s102.44-11.78 149.48-35.33c63.75-31.92 96.51-91.42 99.46-152.11z" fill="#f37c7c"/><path d="m93.475 297.225c0-3.67.096-7.317.253-10.948l-58.813-8.351-27.182 17.769c3.04 60.59 35.79 119.95 99.44 151.82 17.802 8.912 36.211 16.142 54.983 21.682-42.555-44.774-68.681-105.325-68.681-171.972z" fill="#ee6161"/><path d="m194.303 90.705-19.64 5.45-52.78 22.03c-67.81 26.69-105.93 84.95-113.13 146.61l29.595 32.43 123.324 8.191 25.761-61.611 38.803-129.344z" fill="#f37c7c"/><path d="m391.423 118.185-53.78-22.03-16.8-5.94-49.013 3.05 26.494 144.357 83.098 65.85 106.153-14.446 16.929-24.52h.01c-7.281-61.551-45.391-119.671-113.091-146.321z" fill="#f37c7c"/><path d="m353.443 138.965-2.81-4.69-29.79-44.06-23.73-8.4h-70.74l-32.07 8.89-31.63 43.57-2.81 4.69c-27.2 45.39-41.57 97.31-41.57 150.22l5.182 16.231 133.188 11.885 115.528-7.179 22.822-21.097c-.03-52.85-14.4-104.72-41.57-150.06z" fill="#ee6161"/><g><path d="m93.475 297.225c0-83.937 41.424-158.198 104.943-203.459l-4.115-3.061-19.64 5.45-52.78 22.03c-67.81 26.69-105.93 84.95-113.13 146.61l29.595 32.43 55.173 3.665c-.018-1.221-.046-2.44-.046-3.665z" fill="#ee6161"/><path d="m252.012 145.312-37.376-21.339c-1.854-1.059-4.043-1.367-6.118-.862l-45.846 11.168c-5.001 1.218-9.129-3.988-6.804-8.579l5.926-11.701c10.434-20.603 30.257-34.826 53.117-38.11l24.19-3.475-13.275-32.686c-1.805-4.444 1.465-9.302 6.262-9.302h48.13c4.797 0 8.067 4.858 6.262 9.302l-13.275 32.686 24.19 3.475c22.86 3.284 42.683 17.507 53.117 38.11l5.926 11.701c2.325 4.592-1.803 9.798-6.804 8.579l-45.846-11.168c-2.074-.505-4.264-.197-6.118.862l-37.376 21.339c-2.566 1.466-5.716 1.466-8.282 0z" fill="#97da7b"/><g id="XMLID_275_"><g><path d="m395.013 289.025c36.92-5.84 73.48-14.03 109.49-24.52h.01c1.23 10.25 1.58 20.6 1.08 30.9h-.02c-81.16 22.93-164.91 34.54-249.42 34.54-84.16 0-167.56-11.52-248.41-34.25h-.01c-.16-3.1-.24-6.21-.24-9.32 0-7.21.42-14.42 1.26-21.58h.01c36.03 10.46 72.6 18.59 109.53 24.39 45.5 7.16 91.56 10.76 137.86 10.76 46.64 0 93.03-3.66 138.86-10.92z" fill="#e94444"/></g></g><path d="m251.743 269.882-18.283-23.162c-2.908-3.684-.284-9.099 4.41-9.099h36.567c4.694 0 7.318 5.415 4.41 9.099l-18.284 23.162c-2.25 2.85-6.57 2.85-8.82 0z" fill="#f9f7f8"/></g><path d="m93.475 297.225c0-3.67.096-7.317.253-10.948v-1.323c-28.591-5.316-56.942-12.023-84.964-20.159h-.01c-.84 7.16-1.26 14.37-1.26 21.58 0 3.11.08 6.22.24 9.32h.01c28.508 8.015 57.333 14.629 86.396 19.842-.439-6.047-.665-12.153-.665-18.312z" fill="#d83131"/><g><path d="m509.439 247.964c-5.588-27.525-17.327-53.697-33.95-75.686-2.497-3.304-7.2-3.958-10.505-1.46s-3.958 7.202-1.46 10.506c17.129 22.658 28.2 49.614 32.588 77.787-30.88 8.75-62.173 15.792-93.746 21.109-1.506-50.276-15.654-99.429-41.164-142.855.155-.176.311-.352.458-.537 3.32-4.187 3.884-9.75 1.47-14.518l-4.863-9.603 30.314 12.415c.032.013.064.026.096.039 20.151 7.931 38.215 19.053 53.689 33.056 1.436 1.299 3.235 1.939 5.03 1.939 2.045 0 4.083-.832 5.563-2.468 2.779-3.071 2.542-7.814-.529-10.593-16.808-15.209-36.391-27.278-58.211-35.873l-52.367-21.447c-11.71-11.35-26.842-18.934-43.39-21.312l-14.7-2.112 9.666-23.802c1.789-4.403 1.272-9.386-1.381-13.329-2.654-3.943-7.076-6.297-11.829-6.297h-48.131c-4.753 0-9.175 2.354-11.829 6.297-2.653 3.943-3.17 8.925-1.382 13.328l9.667 23.803-14.7 2.112c-16.557 2.379-31.697 9.97-43.41 21.33l-51.37 21.437c-63.784 25.136-107.575 80.448-117.148 147.978-4.569 32.228-.924 65.129 10.542 95.147 12.063 31.583 32.625 59.209 59.462 79.893 1.363 1.051 2.975 1.56 4.572 1.56 2.247 0 4.469-1.005 5.946-2.922 2.528-3.281 1.919-7.99-1.362-10.519-24.646-18.996-43.528-44.365-54.605-73.365-5.302-13.881-8.786-28.437-10.41-43.25 5.744 1.543 11.501 3.031 17.271 4.462v14.318c0 4.142 3.357 7.5 7.5 7.5s7.5-3.358 7.5-7.5v-10.729c8.326 1.919 16.675 3.724 25.047 5.411v13.692c0 4.142 3.357 7.5 7.5 7.5s7.5-3.358 7.5-7.5v-10.799c7.458 1.375 14.932 2.656 22.42 3.847v26.447c0 4.142 3.357 7.5 7.5 7.5s7.5-3.358 7.5-7.5v-24.188c9.438 1.343 18.897 2.544 28.374 3.595v14.087c0 4.142 3.357 7.5 7.5 7.5s7.5-3.358 7.5-7.5v-12.545c11.585 1.093 23.195 1.961 34.821 2.617v13.434c0 4.142 3.357 7.5 7.5 7.5s7.5-3.358 7.5-7.5v-12.709c9.877.397 19.765.641 29.66.721v25.943c0 4.142 3.357 7.5 7.5 7.5s7.5-3.358 7.5-7.5v-25.942c9.895-.08 19.783-.324 29.66-.721v12.708c0 4.142 3.357 7.5 7.5 7.5s7.5-3.358 7.5-7.5v-13.434c11.626-.656 23.236-1.529 34.821-2.623v12.551c0 4.142 3.357 7.5 7.5 7.5s7.5-3.358 7.5-7.5v-14.089c9.477-1.051 18.936-2.252 28.374-3.595v24.19c0 4.142 3.357 7.5 7.5 7.5s7.5-3.358 7.5-7.5v-26.451c7.488-1.191 14.962-2.475 22.42-3.851v10.808c0 4.142 3.357 7.5 7.5 7.5s7.5-3.358 7.5-7.5v-13.702c8.371-1.687 16.721-3.487 25.047-5.406v10.734c0 4.142 3.357 7.5 7.5 7.5s7.5-3.358 7.5-7.5v-14.324c6.104-1.515 12.194-3.093 18.269-4.733-.758 7.115-1.935 14.203-3.574 21.216-11.712 50.104-43.993 90.633-90.896 114.119-45.125 22.596-95.653 34.54-146.12 34.54s-100.995-11.944-146.12-34.54c-.741-.372-1.467-.758-2.192-1.145l-1.082-.573c-3.665-1.929-8.201-.519-10.128 3.147-1.929 3.666-.52 8.201 3.147 10.129l1.015.538c.835.444 1.67.888 2.523 1.315 47.2 23.635 100.05 36.127 152.837 36.127s105.637-12.493 152.837-36.127c50.959-25.517 86.042-69.596 98.786-124.117 6.244-26.719 6.647-55.123 1.162-82.141zm-293.463-164.651 24.19-3.475c2.283-.328 4.289-1.689 5.438-3.689 1.149-2.001 1.312-4.419.445-6.557l-12.86-31.666h45.928l-12.86 31.666c-.867 2.138-.704 4.556.445 6.557 1.148 2 3.154 3.361 5.438 3.689l24.19 3.475c20.418 2.934 38.172 15.671 47.491 34.075l4.481 8.848-42.739-10.41c-3.954-.965-8.078-.383-11.611 1.635l-37.378 21.339c-.26.148-.582.148-.842 0h-.001l-37.376-21.338c-2.419-1.382-5.115-2.09-7.844-2.09-1.257 0-2.521.15-3.769.454l-42.739 10.411 4.481-8.848c9.32-18.404 27.074-31.142 47.492-34.076zm-91.346 41.85c.047-.019.095-.038.142-.058l29.152-12.166-4.747 9.373c-2.414 4.768-1.851 10.33 1.47 14.517.336.424.698.817 1.072 1.192-25.295 43.313-39.311 92.286-40.783 142.367-31.615-5.294-63.04-12.332-93.862-21.028 4.394-28.673 15.732-55.722 32.898-78.33 19.028-25.062 44.146-43.858 74.658-55.867zm131.523 197.282c-81.503 0-162.59-10.941-241.109-32.512-.103-5.143.027-10.299.371-15.451 42.687 11.913 86.493 20.703 130.351 26.147.313.039.625.058.934.058 3.729 0 6.962-2.78 7.433-6.577.511-4.11-2.408-7.856-6.519-8.367-7.248-.9-14.494-1.903-21.735-2.988 1.115-49.315 15.027-97.567 40.419-139.94l1.193-1.991 42.802-10.426c.213-.052.434-.021.623.088l37.377 21.339c2.425 1.385 5.142 2.077 7.859 2.077 2.718 0 5.436-.692 7.859-2.077l37.378-21.339c.189-.107.413-.139.622-.087l43.972 10.711 1.022 1.706c25.368 42.33 39.276 90.528 40.417 139.791-43.382 6.541-87.251 9.838-131.27 9.838-25.546 0-51.4-1.128-76.847-3.354-4.125-.356-7.764 2.691-8.125 6.818-.36 4.126 2.691 7.764 6.818 8.125 25.879 2.263 52.174 3.411 78.153 3.411 81.76 0 163.011-11.188 241.664-33.239.359 5.135.488 10.292.402 15.453-78.824 21.748-160.231 32.786-242.064 32.786z"/><path d="m245.856 274.529c2.504 3.172 6.257 4.99 10.297 4.99s7.793-1.818 10.297-4.99l18.283-23.162c3.142-3.979 3.72-9.286 1.509-13.849-2.212-4.563-6.735-7.397-11.806-7.397h-36.566c-5.07 0-9.594 2.834-11.806 7.397-2.211 4.562-1.633 9.869 1.509 13.849zm24.697-29.408-14.4 18.243-14.4-18.243z"/></g></g></svg>