<svg id="Capa_1" enable-background="new 0 0 512 512" height="512" viewBox="0 0 512 512" width="512" xmlns="http://www.w3.org/2000/svg"><g><path d="m255.831 52.469c-2.836-4.929-6.156-9.7-10.053-14.182-32.674-37.586-90.959-38.276-93.425-38.287-7.732 0-13.938 5.678-14.931 12.979-.332 2.442-7.759 60.251 24.916 97.836 32.207 37.048 89.391 38.301 93.662 38.292-.035 0-.061-.004-.104-.004.026 0 .066.004.104.004l10.001-45.695-10.001-51.222c-.054.094-.115.185-.169.279z" fill="#00ddc3"/><path d="m374.239 12.979c-.994-7.303-7.202-12.979-14.931-12.979-2.466.011-60.75.701-93.426 38.288-3.821 4.396-7.082 9.074-9.882 13.903v96.912c3.576-.029 60.985-1.09 93.322-38.287 32.676-37.586 25.249-95.395 24.917-97.837z" fill="#00c1ae"/><path d="m24.01 164.5c-19.955 33.34-25.563 68.7-23.662 106.5l15.656 14.928-12.595 15.072c18.936 122.166 113.713 211 252.591 211l10.001-34.856v-328.041l-10.001-31.193c-84.44-53.895-186.068-30.166-231.99 46.59z" fill="#ff667a"/><path d="m488 164.5c-45.259-75.669-146.39-101.189-232-46.59v394.09c138.204 0 233.529-88.024 252.592-211l-12.038-15.824 15.098-14.176c1.905-37.878-3.742-73.215-23.652-106.5z" fill="#ff4471"/><path d="m256 204.757-5.216-5.202c-5.858-5.858-15.357-5.857-21.215 0-5.859 5.858-5.859 15.355 0 21.213l15.817 15.816c2.813 2.813 6.628 4.394 10.607 4.394l10.008-20.231z" fill="#ea315a"/><path d="m282.431 199.542c-5.858-5.858-15.357-5.858-21.215 0l-5.216 5.215v36.22c3.976-.002 7.789-1.582 10.6-4.393l15.83-15.829c5.86-5.859 5.86-15.356.001-21.213z" fill="#d22048"/><path d="m.348 271c.51 10.16 1.53 20.17 3.06 30h88.108v45c0 8.28 6.721 15 15.001 15 8.291 0 15.001-6.72 15.001-15v-45h44.904v15c0 8.28 6.721 15 15.001 15 8.291 0 15.001-6.72 15.001-15v-15h44.574v45c0 8.28 6.721 15 15.001 15l9.001-13.607v-66.428l-9-9.965z" fill="#ea315a"/><path d="m256 271v90c8.281 0 15.001-6.72 15.001-15v-45h45.004v15c0 8.28 6.721 15 15.001 15 8.281 0 15.001-6.72 15.001-15v-15h44.954v45c0 8.28 6.721 15 15.001 15 8.281 0 15.001-6.72 15.001-15v-45h87.628c1.53-9.83 2.55-19.84 3.06-30z" fill="#d22048"/></g></svg>