<svg id="Layer_1" height="512" viewBox="0 0 128 128" width="512" xmlns="http://www.w3.org/2000/svg"><g><path d="m123.483 51.611c-3.849-9.683-10.973-16.872-20.604-20.791-1.42-.578-2.863-1.072-4.324-1.489-1.416-.819-7.702-4.183-15.389-4.183-3.117 0-6.345.554-9.611 1.648-1.02-4.809-1.405-9.715-1.777-14.472l-.031-.402c-.041-.521-.475-.922-.997-.922h-5.5c-.522 0-.956.401-.997.922l-.031.402c-.373 4.757-.757 9.664-1.777 14.472-3.266-1.094-6.494-1.648-9.611-1.648-7.687 0-13.972 3.364-15.389 4.183-1.46.417-2.904.912-4.324 1.49-9.631 3.919-16.755 11.108-20.604 20.791-4.62 11.623-3.902 25.677 1.97 38.557 9.9 21.717 29.405 34.172 53.513 34.172s43.613-12.455 53.514-34.172c5.871-12.881 6.589-26.935 1.969-38.558z" fill="#e6e7e8"/><g><path d="m29.497 27.747c11.265-4.584 23.662-3.791 34.503 1.144 10.841-4.935 23.238-5.728 34.503-1.144 22.004 8.954 28.624 34.924 18.101 58.006-9.955 21.836-29.523 33.587-52.604 33.587s-42.649-11.751-52.603-33.587c-10.523-23.083-3.904-49.053 18.1-58.006z" fill="#fa759e"/><path d="m64 116.34c-15.554 0-29.638-4.521-40.676-13.159 10.568 10.591 24.79 16.159 40.676 16.159s30.107-5.568 40.676-16.158c-11.038 8.637-25.122 13.158-40.676 13.158z" fill="#fff"/><path d="m71.538 29.483c2.243.622 4.844 1.091 7.629 1.091 8.376 0 15.167-4.213 15.167-4.213s-6.79-4.213-15.167-4.213c-4.002 0-7.631.962-10.342 1.967-1.253-5.364-1.656-10.78-2.075-16.115-1.833 0-3.667 0-5.5 0-.419 5.335-.822 10.751-2.075 16.115-2.71-1.005-6.34-1.967-10.342-1.967-8.376 0-15.167 4.213-15.167 4.213s6.79 4.213 15.167 4.213c2.785 0 5.386-.469 7.629-1.091-2.026 1.146-4.197 2.654-6.166 4.623-5.923 5.923-7.745 13.704-7.745 13.704s7.781-1.822 13.704-7.745c1.969-1.969 3.477-4.14 4.623-6.166-.622 2.243-1.091 4.844-1.091 7.629 0 8.376 4.213 15.167 4.213 15.167s4.213-6.79 4.213-15.167c0-2.785-.469-5.386-1.091-7.629 1.146 2.026 2.654 4.197 4.623 6.166 5.923 5.923 13.704 7.745 13.704 7.745s-1.822-7.781-7.745-13.704c-1.97-1.969-4.141-3.477-6.166-4.623z" fill="#6dc9f7"/><g fill="#3a2c60"><path d="m7.508 54.299c.08.019.159.028.238.028.45 0 .859-.306.971-.763.811-3.324 2.022-6.468 3.601-9.345.266-.484.088-1.092-.396-1.358-.486-.265-1.093-.088-1.358.396-1.663 3.031-2.938 6.339-3.791 9.833-.13.536.199 1.078.735 1.209z"/><path d="m119.483 47.611c-3.849-9.683-10.973-16.872-20.604-20.791-1.417-.577-2.858-1.07-4.315-1.485-1.399-.81-7.694-4.188-15.397-4.188-3.118 0-6.346.554-9.611 1.649-1.02-4.809-1.405-9.716-1.777-14.473l-.031-.402c-.042-.52-.476-.921-.998-.921h-5.5c-.522 0-.956.401-.997.922l-.031.402c-.373 4.757-.757 9.664-1.777 14.473-3.265-1.095-6.493-1.649-9.611-1.649-7.703 0-13.997 3.378-15.397 4.188-1.458.415-2.898.908-4.316 1.485-6.528 2.656-11.89 6.8-15.935 12.317-.326.445-.23 1.071.215 1.398.446.327 1.071.229 1.398-.215 3.823-5.213 8.895-9.132 15.076-11.647 1.192-.485 2.408-.884 3.631-1.246 1.543.883 7.76 4.147 15.328 4.147.98 0 1.978-.057 2.988-.169-.794.635-1.539 1.301-2.232 1.994-6.055 6.055-7.935 13.854-8.012 14.183-.079.337.022.69.267.935.244.245.596.344.935.267.329-.077 8.127-1.957 14.183-8.012.693-.693 1.359-1.438 1.994-2.233-.112 1.011-.169 2.008-.169 2.989 0 8.563 4.185 15.407 4.363 15.694.182.294.503.473.85.473s.667-.179.85-.473c.178-.287 4.363-7.131 4.363-15.694 0-.98-.057-1.978-.169-2.989.635.794 1.301 1.54 1.994 2.233 6.055 6.055 13.854 7.935 14.183 8.012.337.078.691-.022.935-.267.245-.245.346-.598.267-.935-.077-.329-1.957-8.127-8.012-14.183-.693-.693-1.438-1.359-2.232-1.994 1.01.112 2.008.169 2.988.169 7.569 0 13.786-3.265 15.328-4.147 1.224.362 2.439.761 3.631 1.247 9.114 3.708 15.857 10.513 19.499 19.677 4.015 10.101 3.787 22.148-.517 33.556h-106.231c-2.936-7.762-3.988-15.814-3.044-23.492.067-.548-.322-1.047-.871-1.115-.543-.065-1.047.322-1.115.871-1.129 9.183.475 18.865 4.639 27.999 9.9 21.717 29.405 34.172 53.513 34.172s43.613-12.455 53.514-34.172c5.871-12.883 6.589-26.937 1.969-38.56zm-40.316-18.037c-2.36 0-4.837-.355-7.362-1.055-.483-.133-.998.114-1.191.581s-.008 1.004.431 1.253c2.28 1.291 4.283 2.791 5.952 4.46 3.998 3.998 6.077 8.937 6.955 11.5-2.563-.878-7.501-2.958-11.5-6.955-1.668-1.668-3.169-3.671-4.46-5.952-.249-.439-.785-.625-1.253-.431-.466.193-.716.704-.581 1.191.7 2.525 1.055 5.002 1.055 7.362 0 5.654-2.021 10.616-3.213 13.05-1.191-2.434-3.213-7.396-3.213-13.05 0-2.36.355-4.837 1.055-7.362.135-.487-.115-.998-.581-1.191-.125-.052-.254-.076-.382-.076-.351 0-.688.186-.871.507-1.291 2.281-2.792 4.284-4.46 5.952-3.998 3.998-8.937 6.077-11.5 6.955.878-2.563 2.958-7.501 6.955-11.5 1.669-1.669 3.671-3.169 5.952-4.46.439-.249.625-.786.431-1.253s-.708-.714-1.191-.581c-2.525.7-5.002 1.055-7.362 1.055-5.654 0-10.617-2.021-13.05-3.213 2.433-1.191 7.396-3.213 13.05-3.213 3.222 0 6.585.641 9.994 1.905.269.101.568.079.821-.057s.436-.374.5-.653c1.199-5.127 1.632-10.314 2.027-15.343h3.65c.395 5.029.828 10.216 2.026 15.342.065.279.248.518.5.653.251.136.552.158.821.057 3.409-1.264 6.772-1.905 9.994-1.905 5.654 0 10.617 2.022 13.05 3.213-2.433 1.192-7.395 3.214-13.049 3.214zm-15.167 88.766c-23.291 0-42.132-12.029-51.694-33.001-.217-.476-.423-.954-.626-1.433h104.628c-.202.478-.398.958-.614 1.433-9.562 20.972-28.403 33.001-51.694 33.001z"/></g><g fill="#fff"><g><path d="m61.867 71.521h-6.163c-.4 0-.762-.239-.919-.607-.158-.368-.08-.795.197-1.084l5.253-5.487c.627-.655.611-1.706-.035-2.342-.649-.638-1.672-.643-2.328-.012l-.945.911c-.397.383-1.03.372-1.414-.025-.383-.397-.372-1.031.025-1.414l.946-.912c1.443-1.39 3.691-1.378 5.119.026 1.421 1.399 1.455 3.709.077 5.15l-3.634 3.796h3.821c.552 0 1 .448 1 1s-.448 1-1 1z"/><path d="m68.958 71.521c-1.567 0-3.018-.792-3.784-2.068-.285-.473-.132-1.088.342-1.372.474-.285 1.087-.131 1.372.342.407.677 1.201 1.098 2.07 1.098 1.289 0 2.338-.919 2.338-2.048s-1.049-2.048-2.338-2.048c-.86 0-1.649.415-2.06 1.082-.234.381-.695.56-1.124.438-.431-.122-.728-.515-.728-.962v-5.461c0-.552.448-1 1-1h5.715c.552 0 1 .448 1 1s-.448 1-1 1h-4.715v2.319c.586-.269 1.239-.416 1.912-.416 2.392 0 4.338 1.816 4.338 4.048s-1.945 4.048-4.338 4.048z"/></g><path d="m67.608 93.371h-7.217c-.462 0-.756-.494-.536-.901l3.608-6.648c.231-.425.841-.425 1.072 0l3.608 6.648c.222.407-.072.901-.535.901z"/><path d="m64 80.667c-.552 0-1-.448-1-1v-4.667c0-.552.448-1 1-1s1 .448 1 1v4.667c0 .552-.448 1-1 1z"/><path d="m54 80.667c-.552 0-1-.448-1-1v-2.667c0-.552.448-1 1-1s1 .448 1 1v2.667c0 .552-.448 1-1 1z"/><path d="m44 80.667c-.552 0-1-.448-1-1v-2.667c0-.552.448-1 1-1s1 .448 1 1v2.667c0 .552-.448 1-1 1z"/><path d="m34 80.667c-.552 0-1-.448-1-1v-2.667c0-.552.448-1 1-1s1 .448 1 1v2.667c0 .552-.448 1-1 1z"/><path d="m24 80.667c-.552 0-1-.448-1-1v-2.667c0-.552.448-1 1-1s1 .448 1 1v2.667c0 .552-.448 1-1 1z"/><path d="m14 80.667c-.552 0-1-.448-1-1v-4.667c0-.552.448-1 1-1s1 .448 1 1v4.667c0 .552-.448 1-1 1z"/><path d="m74 80.667c-.552 0-1-.448-1-1v-2.667c0-.552.448-1 1-1s1 .448 1 1v2.667c0 .552-.448 1-1 1z"/><path d="m84 80.667c-.552 0-1-.448-1-1v-2.667c0-.552.448-1 1-1s1 .448 1 1v2.667c0 .552-.448 1-1 1z"/><path d="m94 80.667c-.552 0-1-.448-1-1v-2.667c0-.552.448-1 1-1s1 .448 1 1v2.667c0 .552-.448 1-1 1z"/><path d="m104 80.667c-.552 0-1-.448-1-1v-2.667c0-.552.448-1 1-1s1 .448 1 1v2.667c0 .552-.447 1-1 1z"/><path d="m114 80.667c-.552 0-1-.448-1-1v-4.667c0-.552.448-1 1-1s1 .448 1 1v4.667c0 .552-.447 1-1 1z"/></g></g></g></svg>